<svg xmlns="http://www.w3.org/2000/svg" viewBox="0 0 52.917 52.917"><path fill-rule="evenodd" d="M11.846 19.062c3.211 4.335.476 7.197-1.509 9.876-1.984 2.68-4.013 5.759-7.224 1.424-3.21-4.336-4.023-11.987-2.038-14.667 1.984-2.679 7.56-.968 10.771 3.367zm12.778-8.756c1.175 5.922-2.254 6.554-4.965 7.535-2.71.98-5.607 2.278-6.783-3.645C11.701 8.274 13.831 1.1 16.542.12c2.71-.981 6.906 4.265 8.082 10.187zm16.322 4.15c-1.176 5.923-4.379 4.155-7.09 3.174-2.71-.98-5.7-1.813-4.525-7.735C30.507 3.973 35.01-.803 37.72.178c2.711.98 4.402 8.356 3.227 14.278zm8.528 19.251c-3.211 4.335-5.33.642-7.315-2.037-1.985-2.68-4.265-5.418-1.054-9.754 3.21-4.335 8.878-5.432 10.862-2.752 1.985 2.679.718 10.208-2.493 14.543zM42.098 46.21c0 5.978-1.35 6.924-3.887 6.375-2.535-.548-6.385-3.806-11.124-3.806-4.74 0-8.722 3.258-11.647 3.806-2.926.549-4.024 1.166-4.024-4.812s2.04-12.677 5.147-18.184c3.106-5.507 6.633-11.385 11.373-11.385 4.74 0 5.68 5.426 8.638 10.45 1.634 2.777 5.524 11.578 5.524 17.556z"/><g fill="#fff" stroke-width=".683" aria-label="Furbaby" font-family="sans-serif" font-size="29.13" font-weight="400" letter-spacing="0" style="line-height:1.25" word-spacing="0"><path d="M18.982 35.466H17.16v1.372h1.566v.576H17.16v2.343h-.48V34.89h2.302zM21.732 39.757h-.455v-.405q-.23.245-.44.375-.211.131-.465.131-.426 0-.663-.35-.238-.353-.238-1.032v-2.37h.456v2.079q0 .278.019.477.02.196.082.337.066.143.17.209.104.065.302.065.177 0 .385-.124.21-.124.392-.317v-2.726h.455zM24.315 36.776h-.024q-.102-.032-.199-.045-.094-.017-.225-.017-.21 0-.407.128-.196.124-.377.323v2.592h-.455v-3.65h.455v.539q.271-.295.477-.416.208-.124.423-.124.119 0 .172.01.053.007.16.03zM27.128 37.904q0 .457-.097.823-.095.366-.257.615-.172.258-.377.389-.206.127-.453.127-.23 0-.402-.075-.172-.072-.339-.196l-.029.17h-.426v-5.085h.455v1.817q.192-.213.407-.347.215-.137.484-.137.48 0 .755.497.279.497.279 1.402zm-.47.016q0-.654-.16-.99-.16-.34-.515-.34-.199 0-.402.118-.203.114-.378.297v2.092q.194.117.332.163.14.046.317.046.378 0 .59-.334.216-.336.216-1.052zM29.938 39.757h-.453v-.39q-.06.056-.164.158-.102.098-.199.157-.114.075-.261.124-.148.052-.346.052-.366 0-.62-.327t-.254-.833q0-.415.13-.67.134-.258.378-.405.247-.147.593-.2.346-.052.743-.078v-.095q0-.209-.055-.346-.054-.138-.155-.216-.097-.075-.233-.101-.135-.026-.283-.026-.18 0-.4.065-.22.062-.454.183h-.025v-.624q.134-.05.385-.108.252-.059.496-.059.286 0 .497.065.213.063.368.216.152.15.232.389.08.239.08.592zm-.453-.899v-1.016q-.208.016-.491.049-.28.032-.446.094-.196.076-.317.236-.12.157-.12.434 0 .314.14.474.14.157.428.157.24 0 .438-.124.199-.127.368-.304zM33.198 37.904q0 .457-.096.823-.095.366-.257.615-.172.258-.378.389-.205.127-.452.127-.23 0-.402-.075-.172-.072-.339-.196l-.029.17h-.426v-5.085h.455v1.817q.191-.213.407-.347.215-.137.484-.137.479 0 .755.497.278.497.278 1.402zm-.47.016q0-.654-.159-.99-.16-.34-.516-.34-.198 0-.401.118-.204.114-.378.297v2.092q.194.117.332.163.14.046.317.046.377 0 .59-.334.216-.336.216-1.052zM36.236 36.106l-1.578 4.997h-.487l.504-1.523-1.077-3.474h.494l.83 2.706.837-2.706z"/></g></svg>